<?xml version="1.0" encoding="utf-8"?>
<svg id="master-artboard" viewBox="0 0 1400 980" xmlns="http://www.w3.org/2000/svg" width="1400px" height="980px" version="1.1" style="shape-rendering:geometricPrecision; text-rendering:geometricPrecision; image-rendering:optimizeQuality; fill-rule:evenodd; clip-rule:evenodd"><rect id="ee-background" x="0" y="0" width="1400" height="980" style="fill: rgb(179, 255, 0); fill-opacity: 0; pointer-events: none;"/>
 
 <metadata id="CorelCorpID_0Corel-Layer"/>
<g transform="matrix(1, 0, 0, 1, 69.99999716877892, -29.99999664723873)"><g transform="matrix(1, 0, 0, 1, 0, 0)"><g transform="matrix(1.6728346347808838, 0, 0, 1.6728346347808838, -1305.5034374222669, -579.276925135805)"><g transform="matrix(1, 0, 0, 1, 0, 0)"><g transform="matrix(1, 0, 0, 1, 0, 0)"><g transform="matrix(9.356725692749023, 0, 0, 9.356725692749023, -6225.117280261475, -469.35871060727095)"><g id="g-5" transform="matrix(1, 0, 0, 1, 0, 0)">
	<g id="g-6" transform="matrix(1, 0, 0, 1, 163.069073768102, 5.298273154920279)">
		<path class="st0" d="M652,46c27.6,0,50,22.4,50,50s-22.4,50-50,50s-50-22.4-50-50S624.4,46,652,46z" style="fill: rgb(5, 30, 39);"/>
	</g>
</g></g></g></g><g transform="matrix(8.05128002166748, 0, 0, 8.05128002166748, -5164.227616015487, -344.4424489802486)"><g id="g-1" transform="matrix(1, 0, 0, 1, 0, 0)">
	<g id="g-2" transform="matrix(1, 0, 0, 1, 163.069073768102, 5.298273154920279)">
		<path class="st0" d="M652,46c27.6,0,50,22.4,50,50s-22.4,50-50,50s-50-22.4-50-50S624.4,46,652,46z" style="fill: rgb(0, 39, 54);"/>
	</g>
</g></g></g></g></g></svg>